<?xml version="1.0" encoding="UTF-8"?>
<svg width="128" height="128" viewBox="0 0 128 128" fill="none" xmlns="http://www.w3.org/2000/svg">
  <!-- Background Circle -->
  <circle cx="64" cy="64" r="60" fill="#2D3748" stroke="#4A5568" stroke-width="2"/>
  
  <!-- Brain Icon -->
  <g transform="translate(24, 24)">
    <!-- Left Brain Hemisphere -->
    <path d="M20 25 C15 15, 5 15, 5 25 C5 30, 7 35, 10 40 C12 45, 15 50, 20 55 C25 60, 30 65, 35 70 C40 65, 35 60, 30 55 C25 50, 22 45, 20 40 C18 35, 17 30, 20 25 Z" fill="#60A5FA" stroke="#3B82F6" stroke-width="1.5"/>
    
    <!-- Right Brain Hemisphere -->
    <path d="M60 25 C65 15, 75 15, 75 25 C75 30, 73 35, 70 40 C68 45, 65 50, 60 55 C55 60, 50 65, 45 70 C40 65, 45 60, 50 55 C55 50, 58 45, 60 40 C62 35, 63 30, 60 25 Z" fill="#60A5FA" stroke="#3B82F6" stroke-width="1.5"/>
    
    <!-- Brain Stem -->
    <path d="M35 70 C37 75, 40 78, 43 80 C43 80, 37 80, 35 70 Z" fill="#4A90E2" stroke="#3B82F6" stroke-width="1"/>
    <path d="M45 70 C43 75, 40 78, 37 80 C37 80, 43 80, 45 70 Z" fill="#4A90E2" stroke="#3B82F6" stroke-width="1"/>
    
    <!-- Neural Connections -->
    <circle cx="25" cy="35" r="2" fill="#FCD34D"/>
    <circle cx="55" cy="35" r="2" fill="#FCD34D"/>
    <circle cx="30" cy="50" r="2" fill="#FCD34D"/>
    <circle cx="50" cy="50" r="2" fill="#FCD34D"/>
    <circle cx="40" cy="45" r="2" fill="#FCD34D"/>
    
    <!-- Connection Lines -->
    <line x1="25" y1="35" x2="40" y2="45" stroke="#FCD34D" stroke-width="1" opacity="0.6"/>
    <line x1="55" y1="35" x2="40" y2="45" stroke="#FCD34D" stroke-width="1" opacity="0.6"/>
    <line x1="30" y1="50" x2="40" y2="45" stroke="#FCD34D" stroke-width="1" opacity="0.6"/>
    <line x1="50" y1="50" x2="40" y2="45" stroke="#FCD34D" stroke-width="1" opacity="0.6"/>
  </g>
  
  <!-- Context Zero Text (small) -->
  <text x="64" y="110" font-family="Arial, sans-serif" font-size="10" font-weight="bold" text-anchor="middle" fill="#E2E8F0">ContextZero</text>
  
  <!-- Memory Indicator -->
  <circle cx="90" cy="38" r="8" fill="#F59E0B" stroke="#D97706" stroke-width="1"/>
  <text x="90" y="42" font-family="Arial, sans-serif" font-size="10" font-weight="bold" text-anchor="middle" fill="white">M</text>
</svg>