<?xml version="1.0" encoding="UTF-8"?>
<svg width="128" height="128" viewBox="0 0 128 128" fill="none" xmlns="http://www.w3.org/2000/svg">
  <!-- Background Circle -->
  <circle cx="64" cy="64" r="58" fill="#2D3748" stroke="#4A5568" stroke-width="4"/>
  
  <!-- Simplified Brain Icon -->
  <g transform="translate(32, 32)">
    <!-- Left Brain Hemisphere -->
    <path d="M16 20 C12 12, 4 12, 4 20 C4 28, 8 36, 16 44 C24 52, 28 56, 32 60 C28 56, 24 52, 16 44 C12 40, 10 32, 16 20 Z" fill="#60A5FA" stroke="#3B82F6" stroke-width="2"/>
    
    <!-- Right Brain Hemisphere -->
    <path d="M48 20 C52 12, 60 12, 60 20 C60 28, 56 36, 48 44 C40 52, 36 56, 32 60 C36 56, 40 52, 48 44 C52 40, 54 32, 48 20 Z" fill="#60A5FA" stroke="#3B82F6" stroke-width="2"/>
    
    <!-- Central Connection -->
    <circle cx="32" cy="40" r="4" fill="#FCD34D"/>
    
    <!-- Neural Dots -->
    <circle cx="20" cy="30" r="2" fill="#FCD34D"/>
    <circle cx="44" cy="30" r="2" fill="#FCD34D"/>
    <circle cx="24" cy="48" r="2" fill="#FCD34D"/>
    <circle cx="40" cy="48" r="2" fill="#FCD34D"/>
  </g>
  
  <!-- Memory Indicator -->
  <circle cx="88" cy="40" r="10" fill="#F59E0B" stroke="#D97706" stroke-width="2"/>
  <text x="88" y="46" font-family="Arial, sans-serif" font-size="12" font-weight="bold" text-anchor="middle" fill="white">M</text>
</svg>